<svg xmlns="http://www.w3.org/2000/svg" viewBox="0 0 71.48 71.26"><defs><style>.cls-1{fill:#703a95;fill-rule:evenodd;}</style></defs><title>logo-icon</title><g id="Layer_2" data-name="Layer 2"><g id="Layer_1-2" data-name="Layer 1"><path class="cls-1" d="M2.86,0H68.62a2.86,2.86,0,0,1,2.86,2.85V27.22h0V68.41a2.86,2.86,0,0,1-2.86,2.85H57.47a2.86,2.86,0,0,1-2.86-2.85V46.89A2.86,2.86,0,0,0,51.75,44H35.45a2.87,2.87,0,0,1-2.86-2.85V30.24a2.84,2.84,0,0,0-2.86-2.85H14.58a2.86,2.86,0,0,0-2.86,2.85v11A2.86,2.86,0,0,1,8.86,44h-6A2.87,2.87,0,0,1,0,41.19V2.85A2.86,2.86,0,0,1,2.86,0Z"/><path class="cls-1" d="M2.86,60.2H8.23a2.86,2.86,0,0,1,2.86,2.85v5.36a2.86,2.86,0,0,1-2.86,2.85H2.86A2.86,2.86,0,0,1,0,68.41V63.05A2.86,2.86,0,0,1,2.86,60.2Z"/><path class="cls-1" d="M35.94,60.2h5.37a2.86,2.86,0,0,1,2.86,2.85v5.36a2.86,2.86,0,0,1-2.86,2.85H35.94a2.86,2.86,0,0,1-2.86-2.85V63.05a2.86,2.86,0,0,1,2.86-2.85Z"/><path class="cls-1" d="M19.41,46.94h5.38a2.85,2.85,0,0,1,2.86,2.85v5.36A2.86,2.86,0,0,1,24.79,58H19.41a2.86,2.86,0,0,1-2.86-2.85V49.79a2.85,2.85,0,0,1,2.86-2.85Z"/></g></g></svg>